<svg xmlns="http://www.w3.org/2000/svg" xmlns:inkscape="https://www.inkscape.org/namespaces/inkscape" xmlns:svg="http://www.w3.org/2000/svg" id="svg3409" width="300" height="400" version="1.1" inkscape:version="0.48.1 r9760"><metadata id="metadata3414"/><g id="layer1" transform="translate(0,-652.36218)" inkscape:groupmode="layer" inkscape:label="Layer 1"><path id="path3419" fill="none" stroke="#000" stroke-linecap="butt" stroke-linejoin="miter" stroke-opacity="1" stroke-width="1" d="M 98.145506,95.292439 49.643367,142.65335 z" transform="translate(0,652.36218)" inkscape:connector-curvature="0"/><path id="path3421" fill="none" stroke="#000" stroke-linecap="butt" stroke-linejoin="miter" stroke-opacity="1" stroke-width="1" d="m 98.145506,95.292439 0,-62.196861 z" transform="translate(0,652.36218)" inkscape:connector-curvature="0"/><path id="path3423" fill="none" stroke="#000" stroke-linecap="butt" stroke-linejoin="miter" stroke-opacity="1" stroke-width="1" d="m 98.71612,95.292439 57.06134,21.683311 z" transform="translate(0,652.36218)" inkscape:connector-curvature="0"/><path id="path3425" fill="none" stroke="#000" stroke-linecap="butt" stroke-linejoin="miter" stroke-opacity="1" stroke-width="1" d="m 77.03281,123.82311 25.10699,48.50214 46.21969,-0.57061 6.84736,7.41797 0,0" transform="translate(0,652.36218)" inkscape:connector-curvature="0"/><path id="path3427" fill="none" stroke="#000" stroke-linecap="butt" stroke-linejoin="miter" stroke-opacity="1" stroke-width="1" d="m 174.60771,911.42067 29.10128,39.37233 -22.82454,35.94864" inkscape:connector-curvature="0"/><path id="path3429" fill="none" stroke="#000" stroke-linecap="butt" stroke-linejoin="miter" stroke-opacity="1" stroke-width="1" d="m 203.70899,950.22238 38.2311,0" inkscape:connector-curvature="0"/><path id="path3431" fill="none" stroke="#000" d="m 74.179739,130.38516 a 4.2796006,3.7089872 0 1 1 -8.559201,0 4.2796006,3.7089872 0 1 1 8.559201,0 z" transform="translate(2.853067,643.23237)"/><path id="path3433" fill="none" stroke="#000" d="m 147.78888,202.28246 a 35.948647,19.686163 0 1 1 -71.897294,0 35.948647,19.686163 0 1 1 71.897294,0 z" transform="matrix(1.0662283,-0.67600184,0.61615357,1.1697933,-123.77015,699.61163)"/><path id="path3435" fill="#000" stroke="none" d="m 119.47575,857.78302 a 2.5,2.5 0 1 1 -5,0 2.5,2.5 0 1 1 5,0 z"/><path id="path3437" fill="#000" stroke="none" d="m 139.44722,880.03693 a 2.5,2.5 0 1 1 -5,0 2.5,2.5 0 1 1 5,0 z" transform="translate(3.4236805,-2.2824536)"/><path id="path3439" fill="none" stroke="#000" stroke-linecap="butt" stroke-linejoin="miter" stroke-opacity="1" stroke-width="1" d="m 69.614836,128.95863 0,9.70043 0,0 0,0 0,0 0,0" transform="translate(0,652.36218)" inkscape:connector-curvature="0"/><path id="path3441" fill="none" stroke="#000" stroke-linecap="butt" stroke-linejoin="miter" stroke-opacity="1" stroke-width="1" d="m 69.614836,144.36519 0,10.27104" transform="translate(0,652.36218)" inkscape:connector-curvature="0"/><path id="path3443" fill="none" stroke="#000" stroke-linecap="butt" stroke-linejoin="miter" stroke-opacity="1" stroke-width="1" d="m 69.044223,161.48359 -0.570614,11.41227 0,0 0,0" transform="translate(0,652.36218)" inkscape:connector-curvature="0"/><path id="path3445" fill="none" stroke="#000" stroke-linecap="butt" stroke-linejoin="miter" stroke-opacity="1" stroke-width="1" d="m 117.54636,205.42083 -5.13552,9.12981 0,0 0,1.14123" transform="translate(0,652.36218)" inkscape:connector-curvature="0"/><path id="path3447" fill="none" stroke="#000" stroke-linecap="butt" stroke-linejoin="miter" stroke-opacity="1" stroke-width="1" d="m 110.12839,220.25678 -3.9943,8.5592" transform="translate(0,652.36218)" inkscape:connector-curvature="0"/><path id="path3449" fill="none" stroke="#000" stroke-linecap="butt" stroke-linejoin="miter" stroke-opacity="1" stroke-width="1" d="m 102.71041,233.38088 -3.423677,6.84737" transform="translate(0,652.36218)" inkscape:connector-curvature="0"/><path id="path3451" fill="none" stroke="#000" stroke-linecap="butt" stroke-linejoin="miter" stroke-opacity="1" stroke-width="1" d="m 119.2582,206.56205 3.9943,3.9943" transform="translate(0,652.36218)" inkscape:connector-curvature="0"/><path id="path3453" fill="none" stroke="#000" stroke-linecap="butt" stroke-linejoin="miter" stroke-opacity="1" stroke-width="1" d="m 126.67618,212.8388 4.5649,4.56491" transform="translate(0,652.36218)" inkscape:connector-curvature="0"/><path id="path3455" fill="none" stroke="#000" stroke-linecap="butt" stroke-linejoin="miter" stroke-opacity="1" stroke-width="1" d="m 134.66476,220.25678 4.56491,2.85306" transform="translate(0,652.36218)" inkscape:connector-curvature="0"/><path id="path3457" fill="none" stroke="#000" stroke-linecap="butt" stroke-linejoin="miter" stroke-opacity="1" stroke-width="1" d="m 72.467903,151.78317 c 3.043272,0 6.086543,0 9.129815,0 1.10375,0 3.139321,0.28436 3.994293,-0.57062 0.134495,-0.13449 -0.134494,-0.43612 0,-0.57061 0.387633,-0.38763 1.134813,0.58344 1.711841,-0.57061 0.08506,-0.17013 0,-0.38041 0,-0.57062" transform="translate(0,652.36218)" inkscape:connector-curvature="0"/><path id="path3475" fill="none" stroke="#000" stroke-linecap="butt" stroke-linejoin="miter" stroke-opacity="1" stroke-width="1" d="m 111.84023,219.11555 c 8.72446,1.56648 16.61406,-5.58652 13.69472,1.71184" transform="translate(0,652.36218)" inkscape:connector-curvature="0"/><text id="text3477" x="54.779" y="769.338" fill="#000" fill-opacity="1" stroke="none" font-family="Skia" font-size="22" font-stretch="normal" font-style="normal" font-variant="normal" font-weight="bold" letter-spacing="0" word-spacing="0" xml:space="preserve" style="line-height:125%;-inkscape-font-specification:Skia Bold"><tspan id="tspan3479" x="54.779" y="769.338" font-size="18">O</tspan></text><text id="text3481" x="153.495" y="229.957" fill="#000" fill-opacity="1" stroke="none" font-family="Skia" font-size="22" font-stretch="normal" font-style="normal" font-variant="normal" font-weight="bold" letter-spacing="0" transform="translate(0,652.36218)" word-spacing="0" xml:space="preserve" style="line-height:125%;-inkscape-font-specification:Skia Bold"><tspan id="tspan3483" x="153.495" y="229.957" font-size="18">P</tspan></text><text id="text3485" x="123.252" y="199.715" fill="#000" fill-opacity="1" stroke="none" font-family="Skia" font-size="22" font-stretch="normal" font-style="normal" font-variant="normal" font-weight="bold" letter-spacing="0" transform="translate(0,652.36218)" word-spacing="0" xml:space="preserve" style="line-height:125%;-inkscape-font-specification:Skia Bold"><tspan id="tspan3487" x="123.252" y="199.715" font-size="18">Q</tspan></text><text id="text3489" x="35.949" y="150.071" fill="#000" fill-opacity="1" stroke="none" font-family="Skia" font-size="22" font-stretch="normal" font-style="normal" font-variant="normal" font-weight="bold" letter-spacing="0" transform="translate(0,652.36218)" word-spacing="0" xml:space="preserve" style="line-height:125%;-inkscape-font-specification:Skia Bold"><tspan id="tspan3491" x="35.949" y="150.071" font-size="15">n<tspan id="tspan3531" baseline-shift="sub" font-size="65%">x</tspan></tspan></text><text id="text3493" x="85.021" y="23.966" fill="#000" fill-opacity="1" stroke="none" font-family="Skia" font-size="22" font-stretch="normal" font-style="normal" font-variant="normal" font-weight="bold" letter-spacing="0" transform="translate(0,652.36218)" word-spacing="0" xml:space="preserve" style="line-height:125%;-inkscape-font-specification:Skia Bold"><tspan id="tspan3495" x="85.021" y="23.966" font-size="15">n<tspan id="tspan3533" baseline-shift="sub" font-size="65%">z</tspan></tspan></text><text id="text3497" x="172.896" y="131.812" fill="#000" fill-opacity="1" stroke="none" font-family="Skia" font-size="22" font-stretch="normal" font-style="normal" font-variant="normal" font-weight="bold" letter-spacing="0" transform="translate(0,652.36218)" word-spacing="0" xml:space="preserve" style="line-height:125%;-inkscape-font-specification:Skia Bold"><tspan id="tspan3499" x="172.896" y="131.812" font-size="15">n<tspan id="tspan3535" baseline-shift="sub" font-size="65%">y</tspan></tspan></text><text id="text3501" x="77.603" y="160.913" fill="#000" fill-opacity="1" stroke="none" font-family="Skia" font-size="22" font-stretch="normal" font-style="normal" font-variant="normal" font-weight="bold" letter-spacing="0" transform="translate(0,652.36218)" word-spacing="0" xml:space="preserve" style="line-height:125%;-inkscape-font-specification:Skia Bold"><tspan id="tspan3503" x="77.603" y="160.913" font-size="15">q<tspan id="tspan3545" baseline-shift="sub" font-size="65%">1</tspan></tspan></text><text id="text3505" x="116.405" y="228.245" fill="#000" fill-opacity="1" stroke="none" font-family="Skia" font-size="22" font-stretch="normal" font-style="normal" font-variant="normal" font-weight="bold" letter-spacing="0" transform="translate(0,652.36218)" word-spacing="0" xml:space="preserve" style="line-height:125%;-inkscape-font-specification:Skia Bold"><tspan id="tspan3507" x="116.405" y="228.245" font-size="15">q<tspan id="tspan3543" baseline-shift="sub" font-size="65%">2</tspan></tspan></text><text id="text3509" x="171.755" y="994.73" fill="#000" fill-opacity="1" stroke="none" font-family="Skia" font-size="22" font-stretch="normal" font-style="normal" font-variant="normal" font-weight="bold" letter-spacing="0" word-spacing="0" xml:space="preserve" style="line-height:125%;-inkscape-font-specification:Skia Bold"><tspan id="tspan3511" x="171.755" y="994.73" font-size="15">c<tspan id="tspan3541" baseline-shift="sub" font-size="65.001%">x</tspan></tspan></text><text id="text3513" x="243.652" y="305.278" fill="#000" fill-opacity="1" stroke="none" font-family="Skia" font-size="22" font-stretch="normal" font-style="normal" font-variant="normal" font-weight="bold" letter-spacing="0" transform="translate(0,652.36218)" word-spacing="0" xml:space="preserve" style="line-height:125%;-inkscape-font-specification:Skia Bold"><tspan id="tspan3515" x="243.652" y="305.278" font-size="15">c<tspan id="tspan3539" baseline-shift="sub" font-size="65%">y</tspan></tspan></text><text id="text3517" x="184.879" y="262.482" fill="#000" fill-opacity="1" stroke="none" font-family="Skia" font-size="22" font-stretch="normal" font-style="normal" font-variant="normal" font-weight="bold" letter-spacing="0" transform="translate(0,652.36218)" word-spacing="0" xml:space="preserve" style="line-height:125%;-inkscape-font-specification:Skia Bold"><tspan id="tspan3519" x="184.879" y="262.482" font-size="15">c<tspan id="tspan3537" baseline-shift="sub" font-size="65%">z</tspan></tspan></text><text id="text3523" x="168.902" y="195.72" fill="#000" fill-opacity="1" stroke="none" font-family="Skia" font-size="22" font-stretch="normal" font-style="normal" font-variant="normal" font-weight="bold" letter-spacing="0" transform="translate(0,652.36218)" word-spacing="0" xml:space="preserve" style="line-height:125%;-inkscape-font-specification:Skia Bold"><tspan id="tspan3525" x="168.902" y="195.72" font-size="26">C</tspan></text><text id="text3527" x="107.846" y="75.892" fill="#000" fill-opacity="1" stroke="none" font-family="Skia" font-size="22" font-stretch="normal" font-style="normal" font-variant="normal" font-weight="bold" letter-spacing="0" transform="translate(0,652.36218)" word-spacing="0" xml:space="preserve" style="line-height:125%;-inkscape-font-specification:Skia Bold"><tspan id="tspan3529" x="107.846" y="75.892" font-size="26">N</tspan></text><path id="path3547" fill="none" stroke="#000" stroke-linecap="butt" stroke-linejoin="miter" stroke-opacity="1" stroke-width="1" d="m 36.519258,138.65906 5.135521,-3.9943 4.564907,3.42369" transform="translate(0,652.36218)" inkscape:connector-curvature="0"/><path id="path3549" fill="none" stroke="#000" stroke-linecap="butt" stroke-linejoin="miter" stroke-opacity="1" stroke-width="1" d="m 86.162625,12.553495 4.564907,-3.4236804 3.994294,3.4236804" transform="translate(0,652.36218)" inkscape:connector-curvature="0"/><path id="path3551" fill="none" stroke="#000" stroke-linecap="butt" stroke-linejoin="miter" stroke-opacity="1" stroke-width="1" d="m 174.03709,120.39943 5.70613,-3.99429 3.9943,3.42368" transform="translate(0,652.36218)" inkscape:connector-curvature="0"/><path id="path3553" fill="none" stroke="#000" stroke-linecap="butt" stroke-linejoin="miter" stroke-opacity="1" stroke-width="1" d="m 184.87874,253.35235 4.56491,-3.99429 3.42368,3.42368 0,0 0,0.57061" transform="translate(0,652.36218)" inkscape:connector-curvature="0"/><path id="path3555" fill="none" stroke="#000" stroke-linecap="butt" stroke-linejoin="miter" stroke-opacity="1" stroke-width="1" d="m 245.93438,295.57775 4.56491,-3.42368 3.42368,3.99429" transform="translate(0,652.36218)" inkscape:connector-curvature="0"/><path id="path3557" fill="none" stroke="#000" stroke-linecap="butt" stroke-linejoin="miter" stroke-opacity="1" stroke-width="1" d="m 171.75464,985.60041 4.56491,-3.99429 2.85306,3.42368" inkscape:connector-curvature="0"/></g></svg>